# Wavefront OBJ exported by MilkShape 3D

v 0.000000 0.405500 0.000000
v -0.024500 0.299200 0.123300
v 0.000000 0.299200 0.125700
v 0.024500 0.299200 0.123300
v 0.048100 0.299200 0.116200
v 0.069900 0.299200 0.104500
v 0.088900 0.299200 0.088900
v 0.104500 0.299200 0.069800
v 0.116200 0.299200 0.048100
v 0.123300 0.299200 0.024500
v 0.125700 0.299200 0.000000
v 0.123300 0.299200 -0.024500
v 0.116200 0.299200 -0.048100
v 0.104500 0.299200 -0.069900
v 0.088900 0.299200 -0.088900
v 0.069900 0.299200 -0.104500
v 0.048100 0.299200 -0.116200
v 0.024500 0.299200 -0.123300
v 0.000000 0.299200 -0.125700
v -0.024500 0.299200 -0.123300
v -0.048100 0.299200 -0.116200
v -0.069900 0.299200 -0.104500
v -0.088900 0.299200 -0.088900
v -0.104500 0.299200 -0.069900
v -0.116200 0.299200 -0.048100
v -0.123300 0.299200 -0.024500
v -0.125700 0.299200 0.000000
v -0.123300 0.299200 0.024500
v -0.116200 0.299200 0.048100
v -0.104500 0.299200 0.069800
v -0.088900 0.299200 0.088900
v -0.069900 0.299200 0.104500
v -0.048100 0.299200 0.116200
v -0.017100 0.385600 0.085900
v -0.033500 0.385600 0.080900
v -0.048700 0.385600 0.072800
v -0.061900 0.385600 0.061900
v -0.072800 0.385600 0.048700
v -0.080900 0.385600 0.033500
v -0.085900 0.385600 0.017100
v -0.087600 0.385600 0.000000
v -0.085900 0.385600 -0.017100
v -0.080900 0.385600 -0.033500
v -0.072800 0.385600 -0.048700
v -0.061900 0.385600 -0.061900
v -0.048700 0.385600 -0.072800
v -0.033500 0.385600 -0.080900
v -0.017100 0.385600 -0.085900
v 0.000000 0.385600 -0.087600
v 0.017100 0.385600 -0.085900
v 0.033500 0.385600 -0.080900
v 0.048700 0.385600 -0.072800
v 0.061900 0.385600 -0.061900
v 0.072800 0.385600 -0.048700
v 0.080900 0.385600 -0.033500
v 0.085900 0.385600 -0.017100
v 0.087600 0.385600 0.000000
v 0.085900 0.385600 0.017100
v 0.080900 0.385600 0.033500
v 0.072800 0.385600 0.048700
v 0.061900 0.385600 0.061900
v 0.048700 0.385600 0.072800
v 0.033500 0.385600 0.080900
v 0.017100 0.385600 0.085900
v 0.000000 0.385600 0.087600
v -0.023500 -0.005500 0.118400
v -0.046200 -0.005500 0.111500
v -0.067000 -0.005500 0.100300
v -0.085300 -0.005500 0.085300
v -0.111500 -0.005500 0.046200
v -0.118400 -0.005500 -0.023500
v -0.111500 -0.005500 -0.046200
v -0.067000 -0.005500 -0.100300
v -0.023500 -0.005500 -0.118400
v 0.067000 -0.005500 -0.100300
v 0.085300 -0.005500 -0.085300
v 0.120700 -0.005500 0.000000
v 0.111500 -0.005500 0.046200
v 0.100300 -0.005500 0.067000
v 0.085300 -0.005500 0.085300
v 0.046200 -0.005500 0.111500
v 0.000000 -0.005500 0.120700
v -0.100300 -0.005500 0.067000
v -0.118400 -0.005500 0.023500
v -0.120700 -0.005500 0.000000
v -0.100300 -0.005500 -0.067000
v -0.085300 -0.005500 -0.085300
v -0.046200 -0.005500 -0.111500
v 0.000000 -0.005500 -0.120700
v 0.023500 -0.005500 -0.118400
v 0.046200 -0.005500 -0.111500
v 0.100300 -0.005500 -0.067000
v 0.111500 -0.005500 -0.046200
v 0.118400 -0.005500 -0.023500
v 0.118400 -0.005500 0.023500
v 0.067000 -0.005500 0.100300
v 0.023500 -0.005500 0.118400
v 0.000000 0.385500 0.000000
v -0.020700 0.295300 0.104100
v 0.000000 0.295300 0.106100
v 0.020700 0.295300 0.104100
v 0.040600 0.295300 0.098000
v 0.059000 0.295300 0.088200
v 0.075000 0.295300 0.075000
v 0.088200 0.295300 0.059000
v 0.098000 0.295300 0.040600
v 0.104100 0.295300 0.020700
v 0.106100 0.295300 0.000000
v 0.104100 0.295300 -0.020700
v 0.098000 0.295300 -0.040600
v 0.088200 0.295300 -0.059000
v 0.075000 0.295300 -0.075000
v 0.059000 0.295300 -0.088200
v 0.040600 0.295300 -0.098000
v 0.020700 0.295300 -0.104100
v 0.000000 0.295300 -0.106100
v -0.020700 0.295300 -0.104100
v -0.040600 0.295300 -0.098000
v -0.059000 0.295300 -0.088200
v -0.075000 0.295300 -0.075000
v -0.088200 0.295300 -0.059000
v -0.098000 0.295300 -0.040600
v -0.104100 0.295300 -0.020700
v -0.106100 0.295300 0.000000
v -0.104100 0.295300 0.020700
v -0.098000 0.295300 0.040600
v -0.088200 0.295300 0.059000
v -0.075000 0.295300 0.075000
v -0.059000 0.295300 0.088200
v -0.040600 0.295300 0.098000
v -0.014600 0.370400 0.073200
v -0.028500 0.370400 0.068900
v -0.041400 0.370400 0.062000
v -0.052700 0.370400 0.052700
v -0.062000 0.370400 0.041400
v -0.068900 0.370400 0.028500
v -0.073200 0.370400 0.014600
v -0.074600 0.370400 0.000000
v -0.073200 0.370400 -0.014600
v -0.068900 0.370400 -0.028500
v -0.062000 0.370400 -0.041400
v -0.052700 0.370400 -0.052700
v -0.041400 0.370400 -0.062000
v -0.028500 0.370400 -0.068900
v -0.014600 0.370400 -0.073200
v 0.000000 0.370400 -0.074600
v 0.014600 0.370400 -0.073200
v 0.028500 0.370400 -0.068900
v 0.041400 0.370400 -0.062000
v 0.052700 0.370400 -0.052700
v 0.062000 0.370400 -0.041400
v 0.068900 0.370400 -0.028500
v 0.073200 0.370400 -0.014600
v 0.074600 0.370400 0.000000
v 0.073200 0.370400 0.014600
v 0.068900 0.370400 0.028500
v 0.062000 0.370400 0.041400
v 0.052700 0.370400 0.052700
v 0.041400 0.370400 0.062000
v 0.028500 0.370400 0.068900
v 0.014600 0.370400 0.073200
v 0.000000 0.370400 0.074600
v -0.020700 0.008200 0.104100
v -0.040600 0.008200 0.098000
v -0.059000 0.008200 0.088200
v -0.075000 0.008200 0.075000
v -0.098000 0.008200 0.040600
v -0.104100 0.008200 -0.020700
v -0.098000 0.008200 -0.040600
v -0.059000 0.008200 -0.088200
v -0.020700 0.008200 -0.104100
v 0.059000 0.008200 -0.088200
v 0.075000 0.008200 -0.075000
v 0.106100 0.008200 0.000000
v 0.098000 0.008200 0.040600
v 0.088200 0.008200 0.059000
v 0.075000 0.008200 0.075000
v 0.040600 0.008200 0.098000
v 0.000000 0.008200 0.106100
v -0.088200 0.008200 0.059000
v -0.104100 0.008200 0.020700
v -0.106100 0.008200 0.000000
v -0.088200 0.008200 -0.059000
v -0.075000 0.008200 -0.075000
v -0.040600 0.008200 -0.098000
v 0.000000 0.008200 -0.106100
v 0.020700 0.008200 -0.104100
v 0.040600 0.008200 -0.098000
v 0.088200 0.008200 -0.059000
v 0.098000 0.008200 -0.040600
v 0.104100 0.008200 -0.020700
v 0.104100 0.008200 0.020700
v 0.059000 0.008200 0.088200
v 0.020700 0.008200 0.104100
# 194 vertices

vt 0.670700 0.784400
vt 0.670700 0.783300
vt 0.670600 0.785500
vt 0.671800 0.784600
vt 0.670600 0.781900
vt 0.668200 0.758400
vt 0.673300 0.758400
vt 0.678300 0.759400
vt 0.683100 0.761400
vt 0.672000 0.782200
vt 0.687300 0.764200
vt 0.690900 0.767800
vt 0.693800 0.772100
vt 0.673000 0.783300
vt 0.695700 0.776800
vt 0.696700 0.781900
vt 0.673300 0.784300
vt 0.696700 0.787000
vt 0.695700 0.792000
vt 0.693800 0.796700
vt 0.672900 0.785700
vt 0.690900 0.801000
vt 0.687300 0.804600
vt 0.683000 0.807500
vt 0.671800 0.786700
vt 0.678300 0.809400
vt 0.673300 0.810400
vt 0.668200 0.810400
vt 0.670400 0.786900
vt 0.663100 0.809400
vt 0.658400 0.807500
vt 0.669400 0.786600
vt 0.654100 0.804600
vt 0.650500 0.801000
vt 0.647700 0.796700
vt 0.668400 0.785500
vt 0.645700 0.792000
vt 0.644700 0.787000
vt 0.644700 0.781800
vt 0.668200 0.784000
vt 0.645700 0.776800
vt 0.647700 0.772100
vt 0.650500 0.767800
vt 0.668800 0.782700
vt 0.654200 0.764200
vt 0.658400 0.761400
vt 0.663100 0.759400
# 47 texture coordinates

vn -0.000000 1.000000 -0.000000
vn -0.124660 0.772288 0.622922
vn 0.000000 0.656522 0.754307
vn -0.252442 0.704839 0.662929
vn -0.377964 0.704838 0.600288
vn -0.487318 0.704764 0.515586
vn -0.578614 0.704665 0.410674
vn -0.647166 0.704792 0.290593
vn -0.691581 0.704782 0.158108
vn -0.709297 0.704628 0.019931
vn -0.699489 0.704633 -0.119193
vn -0.662929 0.704839 -0.252442
vn -0.600288 0.704838 -0.377964
vn -0.515586 0.704764 -0.487318
vn -0.411010 0.704827 -0.578177
vn -0.290207 0.704856 -0.647269
vn -0.158108 0.704782 -0.691581
vn -0.019931 0.704628 -0.709297
vn 0.119193 0.704633 -0.699489
vn 0.252442 0.704839 -0.662929
vn 0.377964 0.704838 -0.600288
vn 0.487318 0.704764 -0.515586
vn 0.578177 0.704827 -0.411010
vn 0.647269 0.704856 -0.290207
vn 0.691581 0.704782 -0.158108
vn 0.709297 0.704628 -0.019931
vn 0.699489 0.704633 0.119193
vn 0.662929 0.704839 0.252442
vn 0.600214 0.704676 0.378385
vn 0.516012 0.704677 0.486993
vn 0.411010 0.704827 0.578177
vn 0.290207 0.704856 0.647269
vn 0.158108 0.704782 0.691581
vn -0.175213 0.228971 0.957535
vn -0.213611 -0.331436 0.918978
vn -0.026912 -0.565680 0.824186
vn 0.020008 0.155051 0.987704
vn 0.134090 -0.565721 0.813621
vn 0.191936 0.198271 0.961171
vn 0.290701 -0.565854 0.771558
vn 0.376885 0.198489 0.904743
vn 0.436316 -0.565819 0.699626
vn 0.545990 0.198302 0.813985
vn 0.563594 -0.565896 0.601767
vn 0.695047 0.198429 0.691040
vn 0.670198 -0.565742 0.480385
vn 0.814986 0.198154 0.544549
vn 0.750148 -0.565863 0.342164
vn 0.905911 0.198487 0.374070
vn 0.803168 -0.565744 0.186692
vn 0.961714 0.198430 0.189028
vn 0.824186 -0.565680 0.026912
vn 0.980150 0.198256 -0.001168
vn 0.813621 -0.565721 -0.134090
vn 0.961171 0.198271 -0.191936
vn 0.771558 -0.565854 -0.290701
vn 0.904743 0.198489 -0.376885
vn 0.699626 -0.565819 -0.436316
vn 0.813985 0.198302 -0.545990
vn 0.601767 -0.565896 -0.563594
vn 0.691641 0.198396 -0.694458
vn 0.480925 -0.565832 -0.669735
vn 0.544708 0.198304 -0.814843
vn 0.341679 -0.565877 -0.750359
vn 0.373485 0.198539 -0.906141
vn 0.186692 -0.565744 -0.803168
vn 0.189028 0.198430 -0.961714
vn 0.026912 -0.565680 -0.824186
vn -0.001168 0.198256 -0.980150
vn -0.134090 -0.565721 -0.813621
vn -0.191936 0.198271 -0.961171
vn -0.290701 -0.565854 -0.771558
vn -0.376885 0.198489 -0.904743
vn -0.436316 -0.565819 -0.699626
vn -0.545990 0.198302 -0.813985
vn -0.563594 -0.565896 -0.601767
vn -0.694458 0.198396 -0.691641
vn -0.669735 -0.565832 -0.480925
vn -0.814843 0.198304 -0.544708
vn -0.750359 -0.565877 -0.341679
vn -0.906141 0.198539 -0.373485
vn -0.803168 -0.565744 -0.186692
vn -0.961714 0.198430 -0.189028
vn -0.824186 -0.565680 -0.026912
vn -0.980150 0.198256 0.001168
vn -0.813621 -0.565721 0.134090
vn -0.961171 0.198271 0.191936
vn -0.771558 -0.565854 0.290701
vn -0.904497 0.198515 0.377462
vn -0.699395 -0.565735 0.436795
vn -0.814128 0.198162 0.545827
vn -0.602261 -0.565877 0.563085
vn -0.692248 0.198327 0.693872
vn -0.550276 -0.331603 0.766313
vn -0.544708 0.198304 0.814843
vn -0.040985 -0.995098 0.090006
vn -0.373485 0.198539 0.906141
vn -0.000000 -0.651995 -0.758223
vn 0.124415 -0.774089 -0.620731
vn 0.000000 -1.000000 0.000000
vn 0.255203 -0.702790 -0.664046
vn 0.378052 -0.703066 -0.602308
vn 0.488643 -0.703006 -0.516730
vn 0.579117 -0.703103 -0.412638
vn 0.648581 -0.702918 -0.291974
vn 0.692983 -0.702972 -0.160015
vn 0.711112 -0.702793 -0.020020
vn 0.701216 -0.702942 0.119031
vn 0.664046 -0.702790 0.255203
vn 0.602308 -0.703066 0.378052
vn 0.516730 -0.703006 0.488643
vn 0.412638 -0.703103 0.579117
vn 0.291974 -0.702918 0.648581
vn 0.160015 -0.702972 0.692983
vn 0.020020 -0.702793 0.711112
vn -0.119031 -0.702942 0.701216
vn -0.255203 -0.702790 0.664046
vn -0.378052 -0.703066 0.602308
vn -0.488643 -0.703006 0.516730
vn -0.579117 -0.703103 0.412638
vn -0.648581 -0.702918 0.291974
vn -0.692983 -0.702972 0.160015
vn -0.711112 -0.702793 0.020020
vn -0.701216 -0.702942 -0.119031
vn -0.664046 -0.702790 -0.255203
vn -0.602308 -0.703066 -0.378052
vn -0.516730 -0.703006 -0.488643
vn -0.412638 -0.703103 -0.579117
vn -0.291974 -0.702918 -0.648581
vn -0.160015 -0.702972 -0.692983
vn 0.026749 0.556286 -0.830561
vn 0.216642 0.317510 -0.923176
vn 0.176391 -0.225457 -0.958152
vn -0.019686 -0.157727 -0.987287
vn -0.135049 0.556428 -0.819847
vn -0.192950 -0.197357 -0.961156
vn -0.293778 0.556274 -0.777337
vn -0.377343 -0.197360 -0.904799
vn -0.438612 0.556416 -0.705705
vn -0.546385 -0.197641 -0.813881
vn -0.568538 0.556262 -0.606083
vn -0.693928 -0.197575 -0.692407
vn -0.674756 0.556416 -0.484877
vn -0.815602 -0.197677 -0.543799
vn -0.756902 0.556274 -0.343013
vn -0.905796 -0.197474 -0.374884
vn -0.808920 0.556428 -0.189830
vn -0.961569 -0.197378 -0.190860
vn -0.830561 0.556286 -0.026749
vn -0.980337 -0.197324 0.001380
vn -0.819847 0.556428 0.135049
vn -0.961156 -0.197357 0.192950
vn -0.777337 0.556274 0.293778
vn -0.904799 -0.197360 0.377343
vn -0.705705 0.556416 0.438612
vn -0.813881 -0.197641 0.546385
vn -0.606083 0.556262 0.568538
vn -0.692407 -0.197575 0.693928
vn -0.484877 0.556416 0.674756
vn -0.543799 -0.197677 0.815602
vn -0.343013 0.556274 0.756902
vn -0.374884 -0.197474 0.905796
vn -0.189830 0.556428 0.808920
vn -0.190860 -0.197378 0.961569
vn -0.026749 0.556286 0.830561
vn 0.001380 -0.197324 0.980337
vn 0.135049 0.556428 0.819847
vn 0.192950 -0.197357 0.961156
vn 0.293778 0.556274 0.777337
vn 0.377343 -0.197360 0.904799
vn 0.438612 0.556416 0.705705
vn 0.546385 -0.197641 0.813881
vn 0.568538 0.556262 0.606083
vn 0.693928 -0.197575 0.692407
vn 0.674756 0.556416 0.484877
vn 0.815602 -0.197677 0.543799
vn 0.756902 0.556274 0.343013
vn 0.905796 -0.197474 0.374884
vn 0.808920 0.556428 0.189830
vn 0.961569 -0.197378 0.190860
vn 0.830561 0.556286 0.026749
vn 0.980337 -0.197324 -0.001380
vn 0.819847 0.556428 -0.135049
vn 0.961156 -0.197357 -0.192950
vn 0.777337 0.556274 -0.293778
vn 0.904799 -0.197360 -0.377343
vn 0.705705 0.556416 -0.438612
vn 0.813881 -0.197641 -0.546385
vn 0.606083 0.556262 -0.568538
vn 0.692407 -0.197575 -0.693928
vn 0.553359 0.317501 -0.770056
vn 0.543799 -0.197677 -0.815602
vn 0.040906 0.995077 -0.090264
vn 0.374884 -0.197474 -0.905796
# 194 normals

g p1
s 1
f 1/1/1 34/2/2 65/1/3
f 1/1/1 35/1/4 34/2/2
f 1/1/1 36/1/5 35/1/4
f 1/1/1 37/1/6 36/1/5
f 1/1/1 38/1/7 37/1/6
f 1/1/1 39/1/8 38/1/7
f 1/1/1 40/1/9 39/1/8
f 1/1/1 41/1/10 40/1/9
f 1/1/1 42/1/11 41/1/10
f 1/1/1 43/1/12 42/1/11
f 1/1/1 44/1/13 43/1/12
f 1/1/1 45/1/14 44/1/13
f 1/1/1 46/1/15 45/1/14
f 1/1/1 47/1/16 46/1/15
f 1/1/1 48/1/17 47/1/16
f 1/1/1 49/3/18 48/1/17
f 1/1/1 50/3/19 49/3/18
f 1/1/1 51/1/20 50/3/19
f 1/1/1 52/1/21 51/1/20
f 1/1/1 53/1/22 52/1/21
f 1/1/1 54/1/23 53/1/22
f 1/1/1 55/1/24 54/1/23
f 1/1/1 56/1/25 55/1/24
f 1/1/1 57/4/26 56/1/25
f 1/1/1 58/4/27 57/4/26
f 1/1/1 59/4/28 58/4/27
f 1/1/1 60/1/29 59/4/28
f 1/1/1 61/1/30 60/1/29
f 1/1/1 62/1/31 61/1/30
f 1/1/1 63/1/32 62/1/31
f 1/1/1 64/1/33 63/1/32
f 1/1/1 65/1/3 64/1/33
f 2/5/34 66/6/35 82/7/36
f 2/5/34 82/7/36 3/5/37
f 3/5/37 82/7/36 97/8/38
f 3/5/37 97/8/38 4/5/39
f 4/5/39 97/8/38 81/9/40
f 4/5/39 81/9/40 5/10/41
f 5/10/41 81/9/40 96/11/42
f 5/10/41 96/11/42 6/10/43
f 6/10/43 96/11/42 80/12/44
f 6/10/43 80/12/44 7/10/45
f 7/10/45 80/12/44 79/13/46
f 7/10/45 79/13/46 8/14/47
f 8/14/47 79/13/46 78/15/48
f 8/14/47 78/15/48 9/14/49
f 9/14/49 78/15/48 95/16/50
f 9/14/49 95/16/50 10/17/51
f 10/17/51 95/16/50 77/18/52
f 10/17/51 77/18/52 11/17/53
f 11/17/53 77/18/52 94/19/54
f 11/17/53 94/19/54 12/17/55
f 12/17/55 94/19/54 93/20/56
f 12/17/55 93/20/56 13/21/57
f 13/21/57 93/20/56 92/22/58
f 13/21/57 92/22/58 14/21/59
f 14/21/59 92/22/58 76/23/60
f 14/21/59 76/23/60 15/21/61
f 15/21/61 76/23/60 75/24/62
f 15/21/61 75/24/62 16/25/63
f 16/25/63 75/24/62 91/26/64
f 16/25/63 91/26/64 17/25/65
f 17/25/65 91/26/64 90/27/66
f 17/25/65 90/27/66 18/25/67
f 18/25/67 90/27/66 89/28/68
f 18/25/67 89/28/68 19/29/69
f 19/29/69 89/28/68 74/30/70
f 19/29/69 74/30/70 20/29/71
f 20/29/71 74/30/70 88/31/72
f 20/29/71 88/31/72 21/32/73
f 21/32/73 88/31/72 73/33/74
f 21/32/73 73/33/74 22/32/75
f 22/32/75 73/33/74 87/34/76
f 22/32/75 87/34/76 23/32/77
f 23/32/77 87/34/76 86/35/78
f 23/32/77 86/35/78 24/36/79
f 24/36/79 86/35/78 72/37/80
f 24/36/79 72/37/80 25/36/81
f 25/36/81 72/37/80 71/38/82
f 25/36/81 71/38/82 26/36/83
f 26/36/83 71/38/82 85/39/84
f 26/36/83 85/39/84 27/40/85
f 27/40/85 85/39/84 84/41/86
f 27/40/85 84/41/86 28/40/87
f 28/40/87 84/41/86 70/42/88
f 28/40/87 70/42/88 29/40/89
f 29/40/89 70/42/88 83/43/90
f 29/40/89 83/43/90 30/44/91
f 30/44/91 83/43/90 69/45/92
f 30/44/91 69/45/92 31/44/93
f 31/44/93 69/45/92 68/46/94
f 31/44/93 68/46/94 32/5/95
f 32/5/95 68/46/94 67/47/96
f 32/5/95 67/47/96 33/5/97
f 33/5/97 67/47/96 66/6/35
f 33/5/97 66/6/35 2/5/34
f 2/5/34 3/5/37 65/1/3
f 2/5/34 65/1/3 34/2/2
f 35/1/4 33/5/97 2/5/34
f 35/1/4 2/5/34 34/2/2
f 36/1/5 32/5/95 33/5/97
f 36/1/5 33/5/97 35/1/4
f 37/1/6 31/44/93 32/5/95
f 37/1/6 32/5/95 36/1/5
f 38/1/7 30/44/91 31/44/93
f 38/1/7 31/44/93 37/1/6
f 39/1/8 29/40/89 30/44/91
f 39/1/8 30/44/91 38/1/7
f 40/1/9 28/40/87 29/40/89
f 40/1/9 29/40/89 39/1/8
f 41/1/10 27/40/85 28/40/87
f 41/1/10 28/40/87 40/1/9
f 42/1/11 26/36/83 27/40/85
f 42/1/11 27/40/85 41/1/10
f 43/1/12 25/36/81 26/36/83
f 43/1/12 26/36/83 42/1/11
f 44/1/13 24/36/79 25/36/81
f 44/1/13 25/36/81 43/1/12
f 45/1/14 23/32/77 24/36/79
f 45/1/14 24/36/79 44/1/13
f 46/1/15 22/32/75 23/32/77
f 46/1/15 23/32/77 45/1/14
f 47/1/16 21/32/73 22/32/75
f 47/1/16 22/32/75 46/1/15
f 48/1/17 20/29/71 21/32/73
f 48/1/17 21/32/73 47/1/16
f 49/3/18 19/29/69 20/29/71
f 49/3/18 20/29/71 48/1/17
f 50/3/19 18/25/67 19/29/69
f 50/3/19 19/29/69 49/3/18
f 51/1/20 17/25/65 18/25/67
f 51/1/20 18/25/67 50/3/19
f 52/1/21 16/25/63 17/25/65
f 52/1/21 17/25/65 51/1/20
f 53/1/22 15/21/61 16/25/63
f 53/1/22 16/25/63 52/1/21
f 54/1/23 14/21/59 15/21/61
f 54/1/23 15/21/61 53/1/22
f 55/1/24 13/21/57 14/21/59
f 55/1/24 14/21/59 54/1/23
f 56/1/25 12/17/55 13/21/57
f 56/1/25 13/21/57 55/1/24
f 57/4/26 11/17/53 12/17/55
f 57/4/26 12/17/55 56/1/25
f 58/4/27 10/17/51 11/17/53
f 58/4/27 11/17/53 57/4/26
f 59/4/28 9/14/49 10/17/51
f 59/4/28 10/17/51 58/4/27
f 60/1/29 8/14/47 9/14/49
f 60/1/29 9/14/49 59/4/28
f 61/1/30 7/10/45 8/14/47
f 61/1/30 8/14/47 60/1/29
f 62/1/31 6/10/43 7/10/45
f 62/1/31 7/10/45 61/1/30
f 63/1/32 5/10/41 6/10/43
f 63/1/32 6/10/43 62/1/31
f 64/1/33 4/5/39 5/10/41
f 64/1/33 5/10/41 63/1/32
f 65/1/3 3/5/37 4/5/39
f 65/1/3 4/5/39 64/1/33
f 67/47/96 68/46/94 69/45/92
f 67/47/96 69/45/92 83/43/90
f 67/47/96 83/43/90 70/42/88
f 67/47/96 70/42/88 84/41/86
f 67/47/96 84/41/86 85/39/84
f 67/47/96 85/39/84 71/38/82
f 67/47/96 71/38/82 72/37/80
f 67/47/96 72/37/80 86/35/78
f 67/47/96 86/35/78 87/34/76
f 67/47/96 87/34/76 73/33/74
f 67/47/96 73/33/74 88/31/72
f 67/47/96 88/31/72 74/30/70
f 67/47/96 74/30/70 89/28/68
f 67/47/96 89/28/68 90/27/66
f 67/47/96 90/27/66 91/26/64
f 67/47/96 91/26/64 75/24/62
f 67/47/96 75/24/62 76/23/60
f 67/47/96 76/23/60 92/22/58
f 67/47/96 92/22/58 93/20/56
f 67/47/96 93/20/56 94/19/54
f 67/47/96 94/19/54 77/18/52
f 67/47/96 77/18/52 95/16/50
f 67/47/96 95/16/50 78/15/48
f 67/47/96 78/15/48 79/13/46
f 67/47/96 79/13/46 80/12/44
f 67/47/96 80/12/44 96/11/42
f 67/47/96 96/11/42 81/9/40
f 67/47/96 81/9/40 97/8/38
f 67/47/96 97/8/38 82/7/36
f 67/47/96 82/7/36 66/6/35
f 162/1/98 131/2/99 98/1/100
f 131/2/99 132/1/101 98/1/100
f 132/1/101 133/1/102 98/1/100
f 133/1/102 134/1/103 98/1/100
f 134/1/103 135/1/104 98/1/100
f 135/1/104 136/1/105 98/1/100
f 136/1/105 137/1/106 98/1/100
f 137/1/106 138/1/107 98/1/100
f 138/1/107 139/1/108 98/1/100
f 139/1/108 140/1/109 98/1/100
f 140/1/109 141/1/110 98/1/100
f 141/1/110 142/1/111 98/1/100
f 142/1/111 143/1/112 98/1/100
f 143/1/112 144/1/113 98/1/100
f 144/1/113 145/1/114 98/1/100
f 145/1/114 146/3/115 98/1/100
f 146/3/115 147/3/116 98/1/100
f 147/3/116 148/1/117 98/1/100
f 148/1/117 149/1/118 98/1/100
f 149/1/118 150/1/119 98/1/100
f 150/1/119 151/1/120 98/1/100
f 151/1/120 152/1/121 98/1/100
f 152/1/121 153/1/122 98/1/100
f 153/1/122 154/4/123 98/1/100
f 154/4/123 155/4/124 98/1/100
f 155/4/124 156/4/125 98/1/100
f 156/4/125 157/1/126 98/1/100
f 157/1/126 158/1/127 98/1/100
f 158/1/127 159/1/128 98/1/100
f 159/1/128 160/1/129 98/1/100
f 160/1/129 161/1/130 98/1/100
f 161/1/130 162/1/98 98/1/100
f 179/7/131 163/6/132 99/5/133
f 179/7/131 99/5/133 100/5/134
f 194/8/135 179/7/131 100/5/134
f 194/8/135 100/5/134 101/5/136
f 178/9/137 194/8/135 101/5/136
f 178/9/137 101/5/136 102/10/138
f 193/11/139 178/9/137 102/10/138
f 193/11/139 102/10/138 103/10/140
f 177/12/141 193/11/139 103/10/140
f 177/12/141 103/10/140 104/10/142
f 176/13/143 177/12/141 104/10/142
f 176/13/143 104/10/142 105/14/144
f 175/15/145 176/13/143 105/14/144
f 175/15/145 105/14/144 106/14/146
f 192/16/147 175/15/145 106/14/146
f 192/16/147 106/14/146 107/17/148
f 174/18/149 192/16/147 107/17/148
f 174/18/149 107/17/148 108/17/150
f 191/19/151 174/18/149 108/17/150
f 191/19/151 108/17/150 109/17/152
f 190/20/153 191/19/151 109/17/152
f 190/20/153 109/17/152 110/21/154
f 189/22/155 190/20/153 110/21/154
f 189/22/155 110/21/154 111/21/156
f 173/23/157 189/22/155 111/21/156
f 173/23/157 111/21/156 112/21/158
f 172/24/159 173/23/157 112/21/158
f 172/24/159 112/21/158 113/25/160
f 188/26/161 172/24/159 113/25/160
f 188/26/161 113/25/160 114/25/162
f 187/27/163 188/26/161 114/25/162
f 187/27/163 114/25/162 115/25/164
f 186/28/165 187/27/163 115/25/164
f 186/28/165 115/25/164 116/29/166
f 171/30/167 186/28/165 116/29/166
f 171/30/167 116/29/166 117/29/168
f 185/31/169 171/30/167 117/29/168
f 185/31/169 117/29/168 118/32/170
f 170/33/171 185/31/169 118/32/170
f 170/33/171 118/32/170 119/32/172
f 184/34/173 170/33/171 119/32/172
f 184/34/173 119/32/172 120/32/174
f 183/35/175 184/34/173 120/32/174
f 183/35/175 120/32/174 121/36/176
f 169/37/177 183/35/175 121/36/176
f 169/37/177 121/36/176 122/36/178
f 168/38/179 169/37/177 122/36/178
f 168/38/179 122/36/178 123/36/180
f 182/39/181 168/38/179 123/36/180
f 182/39/181 123/36/180 124/40/182
f 181/41/183 182/39/181 124/40/182
f 181/41/183 124/40/182 125/40/184
f 167/42/185 181/41/183 125/40/184
f 167/42/185 125/40/184 126/40/186
f 180/43/187 167/42/185 126/40/186
f 180/43/187 126/40/186 127/44/188
f 166/45/189 180/43/187 127/44/188
f 166/45/189 127/44/188 128/44/190
f 165/46/191 166/45/189 128/44/190
f 165/46/191 128/44/190 129/5/192
f 164/47/193 165/46/191 129/5/192
f 164/47/193 129/5/192 130/5/194
f 163/6/132 164/47/193 130/5/194
f 163/6/132 130/5/194 99/5/133
f 162/1/98 100/5/134 99/5/133
f 162/1/98 99/5/133 131/2/99
f 99/5/133 130/5/194 132/1/101
f 99/5/133 132/1/101 131/2/99
f 130/5/194 129/5/192 133/1/102
f 130/5/194 133/1/102 132/1/101
f 129/5/192 128/44/190 134/1/103
f 129/5/192 134/1/103 133/1/102
f 128/44/190 127/44/188 135/1/104
f 128/44/190 135/1/104 134/1/103
f 127/44/188 126/40/186 136/1/105
f 127/44/188 136/1/105 135/1/104
f 126/40/186 125/40/184 137/1/106
f 126/40/186 137/1/106 136/1/105
f 125/40/184 124/40/182 138/1/107
f 125/40/184 138/1/107 137/1/106
f 124/40/182 123/36/180 139/1/108
f 124/40/182 139/1/108 138/1/107
f 123/36/180 122/36/178 140/1/109
f 123/36/180 140/1/109 139/1/108
f 122/36/178 121/36/176 141/1/110
f 122/36/178 141/1/110 140/1/109
f 121/36/176 120/32/174 142/1/111
f 121/36/176 142/1/111 141/1/110
f 120/32/174 119/32/172 143/1/112
f 120/32/174 143/1/112 142/1/111
f 119/32/172 118/32/170 144/1/113
f 119/32/172 144/1/113 143/1/112
f 118/32/170 117/29/168 145/1/114
f 118/32/170 145/1/114 144/1/113
f 117/29/168 116/29/166 146/3/115
f 117/29/168 146/3/115 145/1/114
f 116/29/166 115/25/164 147/3/116
f 116/29/166 147/3/116 146/3/115
f 115/25/164 114/25/162 148/1/117
f 115/25/164 148/1/117 147/3/116
f 114/25/162 113/25/160 149/1/118
f 114/25/162 149/1/118 148/1/117
f 113/25/160 112/21/158 150/1/119
f 113/25/160 150/1/119 149/1/118
f 112/21/158 111/21/156 151/1/120
f 112/21/158 151/1/120 150/1/119
f 111/21/156 110/21/154 152/1/121
f 111/21/156 152/1/121 151/1/120
f 110/21/154 109/17/152 153/1/122
f 110/21/154 153/1/122 152/1/121
f 109/17/152 108/17/150 154/4/123
f 109/17/152 154/4/123 153/1/122
f 108/17/150 107/17/148 155/4/124
f 108/17/150 155/4/124 154/4/123
f 107/17/148 106/14/146 156/4/125
f 107/17/148 156/4/125 155/4/124
f 106/14/146 105/14/144 157/1/126
f 106/14/146 157/1/126 156/4/125
f 105/14/144 104/10/142 158/1/127
f 105/14/144 158/1/127 157/1/126
f 104/10/142 103/10/140 159/1/128
f 104/10/142 159/1/128 158/1/127
f 103/10/140 102/10/138 160/1/129
f 103/10/140 160/1/129 159/1/128
f 102/10/138 101/5/136 161/1/130
f 102/10/138 161/1/130 160/1/129
f 101/5/136 100/5/134 162/1/98
f 101/5/136 162/1/98 161/1/130
f 166/45/189 165/46/191 164/47/193
f 166/45/189 164/47/193 180/43/187
f 167/42/185 180/43/187 164/47/193
f 167/42/185 164/47/193 181/41/183
f 182/39/181 181/41/183 164/47/193
f 182/39/181 164/47/193 168/38/179
f 169/37/177 168/38/179 164/47/193
f 169/37/177 164/47/193 183/35/175
f 184/34/173 183/35/175 164/47/193
f 184/34/173 164/47/193 170/33/171
f 185/31/169 170/33/171 164/47/193
f 185/31/169 164/47/193 171/30/167
f 186/28/165 171/30/167 164/47/193
f 186/28/165 164/47/193 187/27/163
f 188/26/161 187/27/163 164/47/193
f 188/26/161 164/47/193 172/24/159
f 173/23/157 172/24/159 164/47/193
f 173/23/157 164/47/193 189/22/155
f 190/20/153 189/22/155 164/47/193
f 190/20/153 164/47/193 191/19/151
f 174/18/149 191/19/151 164/47/193
f 174/18/149 164/47/193 192/16/147
f 175/15/145 192/16/147 164/47/193
f 175/15/145 164/47/193 176/13/143
f 177/12/141 176/13/143 164/47/193
f 177/12/141 164/47/193 193/11/139
f 178/9/137 193/11/139 164/47/193
f 178/9/137 164/47/193 194/8/135
f 179/7/131 194/8/135 164/47/193
f 179/7/131 164/47/193 163/6/132
# 380 triangles in group

# 380 triangles total

