# Wavefront OBJ exported by MilkShape 3D

v 64.468597 -2.443270 -6.577043
v -55.386200 38.825928 -6.577034
v 19.533302 61.731026 -6.577029
v 21.097603 16.138027 -20.149635
v 20.507603 -17.647373 -20.149647
v -11.806200 -27.526768 -20.149647
v -31.187901 0.152733 -20.149540
v -10.852100 27.139130 -20.149536
v -5.045000 8.145435 -26.439743
v 29.127602 20.629929 -6.577038
v 17.320702 -65.010269 -6.577057
v -14.599900 -37.398468 -6.577051
v -56.753300 -39.504471 -6.577052
v -40.356899 -0.613670 -6.577043
v 28.344002 -24.269272 -6.577048
v 20.507603 -17.647373 6.995454
v -11.806200 -27.526768 6.995454
v -31.187901 0.152727 6.995458
v -13.331900 35.249832 -6.577035
v -10.852100 27.139130 6.995463
v 21.097603 16.138027 6.995463
v -5.045000 8.145426 13.285656
# 22 vertices

vt 0.491600 0.971500
vt 0.298000 0.730500
vt 0.377400 0.631300
vt 0.011600 0.609700
vt 0.180900 0.350000
vt 0.302300 0.387000
vt 0.206200 0.042200
vt 0.505200 0.118700
vt 0.510400 0.241100
vt 0.807300 0.050600
vt 0.828800 0.358200
vt 0.714500 0.394000
vt 0.984500 0.626300
vt 0.697500 0.738900
vt 0.632300 0.635000
vt 0.567700 0.438900
vt 0.303700 0.389400
vt 0.181800 0.353800
vt 0.202100 0.045300
vt 0.382300 0.632600
vt 0.304100 0.732500
vt 0.016400 0.616900
vt 0.636400 0.632800
vt 0.702400 0.736000
vt 0.501400 0.970200
vt 0.716000 0.390500
vt 0.830100 0.354200
vt 0.989000 0.618500
vt 0.504200 0.117700
vt 0.803900 0.045300
vt 0.569900 0.437900
# 31 texture coordinates

vn 0.999900 0.014164 0.000003
vn 0.800412 -0.599450 0.000002
vn 0.341686 -0.250185 -0.905902
vn 0.292367 -0.956306 0.000003
vn -0.328367 -0.944550 0.000002
vn -0.143371 -0.398482 -0.905901
vn -0.836873 -0.547397 0.000001
vn -0.999757 0.022035 -0.000000
vn -0.462498 0.023960 -0.886296
vn -0.787061 0.616876 -0.000000
vn -0.292369 0.956306 0.000000
vn -0.143452 0.469210 -0.871357
vn 0.307555 0.951530 0.000001
vn 0.816515 0.577324 0.000002
vn 0.370030 0.278489 -0.886297
vn -0.015393 0.050346 -0.998613
vn 0.341686 -0.250185 0.905902
vn -0.143370 -0.398483 0.905901
vn -0.462498 0.023958 0.886297
vn -0.143451 0.469210 0.871358
vn 0.370030 0.278488 0.886297
vn -0.015391 0.050344 0.998613
# 22 normals

g estrrella
s 1
f 1/1/1 15/2/2 5/3/3
f 11/4/4 12/5/5 6/6/6
f 13/7/7 14/8/8 7/9/9
f 2/10/10 19/11/11 8/12/12
f 3/13/13 10/14/14 4/15/15
f 7/9/9 6/6/6 13/7/7
f 7/9/9 8/12/12 9/16/16
f 9/16/16 5/3/3 6/6/6
f 8/12/12 4/15/15 9/16/16
f 9/16/16 4/15/15 5/3/3
f 5/3/3 11/4/4 6/6/6
f 4/15/15 1/1/1 5/3/3
f 8/12/12 3/13/13 4/15/15
f 7/9/9 2/10/10 8/12/12
f 7/9/9 9/16/16 6/6/6
f 1/1/1 4/15/15 10/14/14
f 11/4/4 5/3/3 15/2/2
f 13/7/7 6/6/6 12/5/5
f 2/10/10 7/9/9 14/8/8
f 3/13/13 8/12/12 19/11/11
f 16/17/17 15/18/2 1/19/1
f 17/20/18 12/21/5 11/22/4
f 18/23/19 14/24/8 13/25/7
f 20/26/20 19/27/11 2/28/10
f 21/9/21 10/29/14 3/30/13
f 18/23/19 13/25/7 17/20/18
f 18/23/19 22/31/22 20/26/20
f 22/31/22 17/20/18 16/17/17
f 20/26/20 22/31/22 21/9/21
f 22/31/22 16/17/17 21/9/21
f 16/17/17 17/20/18 11/22/4
f 21/9/21 16/17/17 1/19/1
f 20/26/20 21/9/21 3/30/13
f 18/23/19 20/26/20 2/28/10
f 18/23/19 17/20/18 22/31/22
f 10/29/14 21/9/21 1/19/1
f 11/22/4 15/18/2 16/17/17
f 13/25/7 12/21/5 17/20/18
f 14/24/8 18/23/19 2/28/10
f 19/27/11 20/26/20 3/30/13
# 40 triangles in group

# 40 triangles total

